<?xml version="1.0" encoding="UTF-8" standalone="no"?>
<svg
   xmlns:dc="http://purl.org/dc/elements/1.1/"
   xmlns:cc="http://creativecommons.org/ns#"
   xmlns:rdf="http://www.w3.org/1999/02/22-rdf-syntax-ns#"
   xmlns:svg="http://www.w3.org/2000/svg"
   xmlns="http://www.w3.org/2000/svg"
   xmlns:sodipodi="http://sodipodi.sourceforge.net/DTD/sodipodi-0.dtd"
   xmlns:inkscape="http://www.inkscape.org/namespaces/inkscape"
   width="210mm"
   height="297mm"
   viewBox="0 0 210 297"
   version="1.1"
   id="svg8"
   inkscape:version="1.0 (4035a4fb49, 2020-05-01)"
   sodipodi:docname="sprites.svg">
  <defs
     id="defs2">
    <inkscape:path-effect
       message="Use fill-rule evenodd on &lt;b&gt;fill and stroke&lt;/b&gt; dialog if no flatten result after convert clip to paths."
       hide_clip="false"
       flatten="false"
       inverse="true"
       lpeversion="1"
       is_visible="true"
       id="path-effect968"
       effect="powerclip" />
    <inkscape:path-effect
       effect="powerclip"
       id="path-effect986"
       is_visible="true"
       lpeversion="1"
       inverse="true"
       flatten="false"
       hide_clip="false"
       message="Use fill-rule evenodd on &lt;b&gt;fill and stroke&lt;/b&gt; dialog if no flatten result after convert clip to paths." />
    <inkscape:path-effect
       effect="powerclip"
       id="path-effect864"
       is_visible="true"
       lpeversion="1"
       inverse="true"
       flatten="false"
       hide_clip="false"
       message="Use fill-rule evenodd on &lt;b&gt;fill and stroke&lt;/b&gt; dialog if no flatten result after convert clip to paths." />
    <inkscape:path-effect
       effect="powerclip"
       id="path-effect853"
       is_visible="true"
       lpeversion="1"
       inverse="true"
       flatten="false"
       hide_clip="false"
       message="Use fill-rule evenodd on &lt;b&gt;fill and stroke&lt;/b&gt; dialog if no flatten result after convert clip to paths." />
    <inkscape:path-effect
       effect="powerclip"
       id="path-effect846"
       is_visible="true"
       lpeversion="1"
       inverse="true"
       flatten="false"
       hide_clip="false"
       message="Use fill-rule evenodd on &lt;b&gt;fill and stroke&lt;/b&gt; dialog if no flatten result after convert clip to paths." />
    <inkscape:path-effect
       message="Use fill-rule evenodd on &lt;b&gt;fill and stroke&lt;/b&gt; dialog if no flatten result after convert clip to paths."
       hide_clip="false"
       flatten="false"
       inverse="true"
       lpeversion="1"
       is_visible="true"
       id="path-effect1007"
       effect="powerclip" />
    <inkscape:path-effect
       message="Use fill-rule evenodd on &lt;b&gt;fill and stroke&lt;/b&gt; dialog if no flatten result after convert clip to paths."
       hide_clip="false"
       flatten="false"
       inverse="true"
       lpeversion="1"
       is_visible="true"
       id="path-effect993"
       effect="powerclip" />
    <inkscape:path-effect
       message="Use fill-rule evenodd on &lt;b&gt;fill and stroke&lt;/b&gt; dialog if no flatten result after convert clip to paths."
       hide_clip="false"
       flatten="false"
       inverse="true"
       lpeversion="1"
       is_visible="true"
       id="path-effect958"
       effect="powerclip" />
    <clipPath
       id="clipPath954"
       clipPathUnits="userSpaceOnUse">
      <rect
         d="m 40,-130 h 20 c 11.08,0 20,8.92 20,20 v 60 c 0,11.08 -8.92,20 -20,20 H 40 c -11.08,0 -20,-8.92 -20,-20 v -60 c 0,-11.08 8.92,-20 20,-20 z"
         ry="20"
         y="-130"
         x="20"
         height="100"
         width="60"
         id="rect956"
         style="display:none;fill:#999999;fill-opacity:1;stroke:none;stroke-width:5.00002;stroke-linecap:round;stroke-linejoin:round;stroke-miterlimit:4;stroke-dasharray:none;stroke-opacity:1" />
    </clipPath>
    <clipPath
       id="clipPath989"
       clipPathUnits="userSpaceOnUse">
      <rect
         d="M -19.999954,-115 H 120.89429 c 16.62002,0 30.00004,13.38002 30.00004,30.000046 v 27.312408 c 0,16.620026 -13.38002,30.000046 -30.00004,30.000046 H -19.999954 C -36.61998,-27.6875 -50,-41.06752 -50,-57.687546 V -84.999954 C -50,-101.61998 -36.61998,-115 -19.999954,-115 Z"
         ry="30.000046"
         y="-115"
         x="-50"
         height="87.3125"
         width="200.89433"
         id="rect991"
         style="display:none;fill:#e6e6e6;fill-opacity:1;stroke:none;stroke-width:4.99996;stroke-linecap:round;stroke-linejoin:round;stroke-miterlimit:4;stroke-dasharray:none;stroke-opacity:1" />
    </clipPath>
    <clipPath
       id="clipPath1003"
       clipPathUnits="userSpaceOnUse">
      <rect
         d="m 45,-130 h 10 c 11.08,0 20,8.92 20,20 v 60 c 0,11.08 -8.92,20 -20,20 H 45 c -11.08,0 -20,-8.92 -20,-20 v -60 c 0,-11.08 8.92,-20 20,-20 z"
         ry="20"
         y="-130"
         x="25"
         height="100"
         width="50"
         id="rect1005"
         style="display:none;fill:#e6e6e6;fill-opacity:1;stroke:none;stroke-width:4.99996;stroke-linecap:round;stroke-linejoin:round;stroke-miterlimit:4;stroke-dasharray:none;stroke-opacity:1" />
    </clipPath>
    <clipPath
       clipPathUnits="userSpaceOnUse"
       id="clipath_lpe_path-effect846">
      <rect
         style="display:none;fill:#e6e6e6;fill-opacity:1;stroke:none;stroke-width:4.99996;stroke-linecap:round;stroke-linejoin:round;stroke-miterlimit:4;stroke-dasharray:none;stroke-opacity:1"
         id="rect848"
         width="50"
         height="100"
         x="25"
         y="-130"
         ry="20"
         d="m 45,-130 h 10 c 11.08,0 20,8.92 20,20 v 60 c 0,11.08 -8.92,20 -20,20 H 45 c -11.08,0 -20,-8.92 -20,-20 v -60 c 0,-11.08 8.92,-20 20,-20 z" />
    </clipPath>
    <clipPath
       id="clipath_lpe_path-effect853"
       clipPathUnits="userSpaceOnUse">
      <rect
         d="m 45,-130 h 10 c 11.08,0 20,8.92 20,20 v 60 c 0,11.08 -8.92,20 -20,20 H 45 c -11.08,0 -20,-8.92 -20,-20 v -60 c 0,-11.08 8.92,-20 20,-20 z"
         ry="20"
         y="-130"
         x="25"
         height="100"
         width="50"
         id="rect855"
         style="display:none;fill:#e6e6e6;fill-opacity:1;stroke:none;stroke-width:4.99996;stroke-linecap:round;stroke-linejoin:round;stroke-miterlimit:4;stroke-dasharray:none;stroke-opacity:1" />
    </clipPath>
    <clipPath
       clipPathUnits="userSpaceOnUse"
       id="clipPath860">
      <rect
         style="display:block;fill:#e6e6e6;stroke-width:4.99996;stroke-linecap:round;stroke-linejoin:round"
         id="rect862"
         width="248.29338"
         height="91.138901"
         x="-80.715393"
         y="-115"
         ry="20.000013" />
    </clipPath>
    <clipPath
       clipPathUnits="userSpaceOnUse"
       id="clipPath978">
      <g
         id="g984"
         style="display:none;stroke-width:0.999999">
        <rect
           style="fill:#e6e6e6;stroke-width:4.99997;stroke-linecap:round;stroke-linejoin:round"
           id="rect980"
           width="50.000004"
           height="50"
           x="25"
           y="-130"
           ry="15.787105"
           d="m 40.787105,-130 h 18.425794 c 8.746056,0 15.787105,7.04105 15.787105,15.7871 v 18.425795 C 75.000004,-87.041049 67.958955,-80 59.212899,-80 H 40.787105 C 32.041049,-80 25,-87.041049 25,-95.787105 V -114.2129 C 25,-122.95895 32.041049,-130 40.787105,-130 Z" />
        <rect
           style="fill:#e6e6e6;stroke-width:4.99997;stroke-linecap:round;stroke-linejoin:round"
           id="rect982"
           width="150"
           height="80"
           x="-25"
           y="-115"
           ry="31.425041"
           d="M 6.4250412,-115 H 93.574959 C 110.98443,-115 125,-100.98443 125,-83.574959 v 17.149918 C 125,-49.015568 110.98443,-35 93.574959,-35 H 6.4250412 C -10.984432,-35 -25,-49.015568 -25,-66.425041 V -83.574959 C -25,-100.98443 -10.984432,-115 6.4250412,-115 Z" />
      </g>
      <path
         id="lpe_path-effect986"
         style="stroke-width:0.999999"
         class="powerclip"
         d="M -4.9999988,-155.00001 H 105.00001 V -45.000009 H -4.9999988 Z M 40.787105,-130 C 32.041049,-130 25,-122.95895 25,-114.2129 v 18.425795 C 25,-87.041049 32.041049,-80 40.787105,-80 h 18.425794 c 8.746056,0 15.787105,-7.041049 15.787105,-15.787105 V -114.2129 c 0,-8.74605 -7.041049,-15.7871 -15.787105,-15.7871 z M 6.4250412,-115 C -10.984432,-115 -25,-100.98443 -25,-83.574959 v 17.149918 C -25,-49.015568 -10.984432,-35 6.4250412,-35 H 93.574959 C 110.98443,-35 125,-49.015568 125,-66.425041 V -83.574959 C 125,-100.98443 110.98443,-115 93.574959,-115 Z" />
    </clipPath>
    <clipPath
       id="clipPath964"
       clipPathUnits="userSpaceOnUse">
      <ellipse
         d="M -502.4035,-146.75716 A 111.48938,229.85318 0 0 1 -613.89288,83.096024 111.48938,229.85318 0 0 1 -725.38226,-146.75716 111.48938,229.85318 0 0 1 -613.89288,-376.61034 111.48938,229.85318 0 0 1 -502.4035,-146.75716"
         ry="229.85318"
         rx="111.48938"
         inkscape:export-ydpi="25.399998"
         inkscape:export-xdpi="25.399998"
         cy="-146.75716"
         cx="-613.89288"
         id="circle966"
         style="display:none;fill:#ff6600;stroke:none;stroke-width:0.499997;stroke-linecap:round;stroke-linejoin:round;stroke-miterlimit:4;stroke-dasharray:none" />
      <path
         d="m -711.80069,-472.59394 h 195.81556 v 172.81165 h -195.81556 z m 209.39719,325.83678 a 111.48938,229.85318 0 0 0 -111.48938,-229.85318 111.48938,229.85318 0 0 0 -111.48938,229.85318 111.48938,229.85318 0 0 0 111.48938,229.853184 111.48938,229.85318 0 0 0 111.48938,-229.853184"
         class="powerclip"
         style="fill:#ff6600;stroke:none;stroke-width:0.499997;stroke-linecap:round;stroke-linejoin:round;stroke-miterlimit:4;stroke-dasharray:none"
         id="lpe_path-effect968" />
    </clipPath>
  </defs>
  <sodipodi:namedview
     id="base"
     pagecolor="#000000"
     bordercolor="#666666"
     borderopacity="1.0"
     inkscape:pageopacity="0"
     inkscape:pageshadow="2"
     inkscape:zoom="1.4"
     inkscape:cx="102.75708"
     inkscape:cy="1212.6036"
     inkscape:document-units="mm"
     inkscape:current-layer="layer1"
     inkscape:document-rotation="0"
     showgrid="false"
     inkscape:pagecheckerboard="true"
     showborder="false"
     inkscape:window-width="1920"
     inkscape:window-height="1051"
     inkscape:window-x="2391"
     inkscape:window-y="425"
     inkscape:window-maximized="1" />
  <metadata
     id="metadata5">
    <rdf:RDF>
      <cc:Work
         rdf:about="">
        <dc:format>image/svg+xml</dc:format>
        <dc:type
           rdf:resource="http://purl.org/dc/dcmitype/StillImage" />
        <dc:title />
      </cc:Work>
    </rdf:RDF>
  </metadata>
  <g
     inkscape:label="Layer 1"
     inkscape:groupmode="layer"
     id="layer1">
    <ellipse
       style="fill:#222831;fill-opacity:1;stroke:#363c45;stroke-width:5.00001;stroke-linecap:round;stroke-linejoin:round;stroke-miterlimit:4;stroke-dasharray:none;stroke-opacity:1"
       id="path1037"
       cx="50.000004"
       cy="-150"
       rx="47.5"
       ry="47.499992"
       inkscape:export-xdpi="25.399998"
       inkscape:export-ydpi="25.399998"
       inkscape:export-filename="C:\Users\Duong\Documents\Development\Projects\1VA\Assets\Sprites\Player\Head.png" />
    <circle
       style="fill:#ffaaaa;fill-opacity:1;stroke:#eb9696;stroke-width:4.99997;stroke-linecap:round;stroke-linejoin:round;stroke-miterlimit:4;stroke-dasharray:none;stroke-opacity:1"
       id="path1062"
       cx="20"
       cy="-30"
       inkscape:export-xdpi="25.399998"
       inkscape:export-ydpi="25.399998"
       r="17.500015" />
    <g
       inkscape:export-ydpi="25.399998"
       inkscape:export-xdpi="25.399998"
       inkscape:export-filename="C:\Users\Duong\Documents\Development\Projects\1VA\Assets\Sprites\Player\Feet.png"
       id="g884">
      <rect
         inkscape:export-ydpi="25.399998"
         inkscape:export-xdpi="25.399998"
         ry="25"
         y="277.5"
         x="2.499995"
         height="70.000008"
         width="45.000011"
         id="rect1079"
         style="fill:#aa4400;fill-opacity:1;stroke:#963000;stroke-width:4.99999;stroke-linecap:round;stroke-linejoin:round;stroke-miterlimit:4;stroke-dasharray:none;stroke-opacity:1" />
      <rect
         style="fill:#eeeeee;fill-opacity:1;stroke:none;stroke-width:4.99999;stroke-linecap:round;stroke-linejoin:round;stroke-miterlimit:4;stroke-dasharray:none;stroke-opacity:1"
         id="rect1081"
         width="25"
         height="25"
         x="12.5"
         y="295"
         ry="8.9285707"
         inkscape:export-xdpi="25.399998"
         inkscape:export-ydpi="25.399998" />
    </g>
    <rect
       style="fill:#00adb5;fill-opacity:1;stroke:#0099a1;stroke-width:4.99999;stroke-linecap:round;stroke-linejoin:round;stroke-miterlimit:4;stroke-dasharray:none;stroke-opacity:1"
       id="rect1041"
       width="175.00002"
       height="70.000008"
       x="2.499995"
       y="-297.5"
       ry="30"
       rx="80"
       inkscape:export-xdpi="25.399998"
       inkscape:export-ydpi="25.399998"
       inkscape:export-filename="C:\Users\Duong\Documents\Development\Projects\1VA\Assets\Sprites\Player\Body.png" />
    <rect
       style="fill:#eeeeee;fill-opacity:1;stroke:none;stroke-width:5;stroke-linecap:round;stroke-linejoin:round;stroke-miterlimit:4;stroke-dasharray:none;stroke-opacity:1"
       id="rect1095"
       width="10"
       height="50"
       x="247.26311"
       y="-48.775764"
       ry="5"
       transform="rotate(-75)"
       inkscape:export-filename="C:\Users\Duong\Documents\Development\Projects\1VA\Assets\Sprites\Player\Body.png"
       inkscape:export-xdpi="25.399998"
       inkscape:export-ydpi="25.399998" />
    <rect
       transform="matrix(-0.25881905,-0.96592583,-0.96592583,0.25881905,0,0)"
       ry="5"
       y="-227.1337"
       x="199.47224"
       height="50"
       width="10"
       id="rect1097"
       style="fill:#eeeeee;fill-opacity:1;stroke:none;stroke-width:5;stroke-linecap:round;stroke-linejoin:round;stroke-miterlimit:4;stroke-dasharray:none;stroke-opacity:1"
       inkscape:export-filename="C:\Users\Duong\Documents\Development\Projects\1VA\Assets\Sprites\Player\Body.png"
       inkscape:export-xdpi="25.399998"
       inkscape:export-ydpi="25.399998" />
    <rect
       inkscape:export-ydpi="25.399998"
       inkscape:export-xdpi="25.399998"
       inkscape:export-filename="C:\Users\Duong\Documents\Development\Projects\1VA\Assets\Sprites\Player\Body.png"
       transform="rotate(-75)"
       ry="5"
       y="-44.29269"
       x="269.16986"
       height="50"
       width="10"
       id="rect1105"
       style="fill:#eeeeee;fill-opacity:1;stroke:none;stroke-width:5;stroke-linecap:round;stroke-linejoin:round;stroke-miterlimit:4;stroke-dasharray:none;stroke-opacity:1" />
    <rect
       inkscape:export-ydpi="25.399998"
       inkscape:export-xdpi="25.399998"
       inkscape:export-filename="C:\Users\Duong\Documents\Development\Projects\1VA\Assets\Sprites\Player\Body.png"
       style="fill:#eeeeee;fill-opacity:1;stroke:none;stroke-width:5;stroke-linecap:round;stroke-linejoin:round;stroke-miterlimit:4;stroke-dasharray:none;stroke-opacity:1"
       id="rect1107"
       width="10"
       height="50"
       x="221.37889"
       y="-222.65103"
       ry="5"
       transform="matrix(-0.25881905,-0.96592583,-0.96592583,0.25881905,0,0)" />
    <rect
       inkscape:export-filename="C:\Users\Duong\Documents\Development\Projects\1VA\Assets\Sprites\Player\Body.png"
       inkscape:export-ydpi="25.399998"
       inkscape:export-xdpi="25.399998"
       rx="80"
       ry="30"
       y="-297.5"
       x="2.499995"
       height="70.000008"
       width="175.00002"
       id="rect1109"
       style="fill:#00adb5;fill-opacity:1;stroke:#0099a1;stroke-width:4.99999;stroke-linecap:round;stroke-linejoin:round;stroke-miterlimit:4;stroke-dasharray:none;stroke-opacity:1" />
    <rect
       inkscape:export-ydpi="25.399998"
       inkscape:export-xdpi="25.399998"
       inkscape:export-filename="C:\Users\Duong\Documents\Development\Projects\1VA\Assets\Sprites\Player\Body.png"
       transform="rotate(-75)"
       ry="5"
       y="-48.775764"
       x="247.26311"
       height="50"
       width="10"
       id="rect1111"
       style="fill:#eeeeee;fill-opacity:1;stroke:none;stroke-width:5;stroke-linecap:round;stroke-linejoin:round;stroke-miterlimit:4;stroke-dasharray:none;stroke-opacity:1" />
    <rect
       inkscape:export-ydpi="25.399998"
       inkscape:export-xdpi="25.399998"
       inkscape:export-filename="C:\Users\Duong\Documents\Development\Projects\1VA\Assets\Sprites\Player\Body.png"
       style="fill:#eeeeee;fill-opacity:1;stroke:none;stroke-width:5;stroke-linecap:round;stroke-linejoin:round;stroke-miterlimit:4;stroke-dasharray:none;stroke-opacity:1"
       id="rect1113"
       width="10"
       height="50"
       x="199.47224"
       y="-227.1337"
       ry="5"
       transform="matrix(-0.25881905,-0.96592583,-0.96592583,0.25881905,0,0)" />
    <rect
       style="fill:#eeeeee;fill-opacity:1;stroke:none;stroke-width:5;stroke-linecap:round;stroke-linejoin:round;stroke-miterlimit:4;stroke-dasharray:none;stroke-opacity:1"
       id="rect1115"
       width="10"
       height="50"
       x="269.16986"
       y="-44.29269"
       ry="5"
       transform="rotate(-75)"
       inkscape:export-filename="C:\Users\Duong\Documents\Development\Projects\1VA\Assets\Sprites\Player\Body.png"
       inkscape:export-xdpi="25.399998"
       inkscape:export-ydpi="25.399998" />
    <rect
       transform="matrix(-0.25881905,-0.96592583,-0.96592583,0.25881905,0,0)"
       ry="5"
       y="-222.65103"
       x="221.37889"
       height="50"
       width="10"
       id="rect1117"
       style="fill:#eeeeee;fill-opacity:1;stroke:none;stroke-width:5;stroke-linecap:round;stroke-linejoin:round;stroke-miterlimit:4;stroke-dasharray:none;stroke-opacity:1"
       inkscape:export-filename="C:\Users\Duong\Documents\Development\Projects\1VA\Assets\Sprites\Player\Body.png"
       inkscape:export-xdpi="25.399998"
       inkscape:export-ydpi="25.399998" />
    <rect
       y="-450"
       x="0"
       height="100"
       width="100"
       id="rect879"
       style="fill:#222831;stroke-width:4.99998;stroke-linecap:round;stroke-linejoin:round" />
    <path
       inkscape:path-effect="#path-effect968"
       clip-path="url(#clipPath964)"
       inkscape:export-ydpi="25.399992"
       inkscape:export-xdpi="25.399992"
       transform="matrix(0.53816784,0,0,0.26103619,380.37742,122.05893)"
       inkscape:transform-center-y="-6.4849674"
       inkscape:transform-center-x="0.032080822"
       d="m -527.65474,-311.45239 -86.23817,-0.10323 -86.23817,-0.10322 43.20848,-74.63283 43.20848,-74.63283 43.02969,74.73605 z"
       inkscape:randomized="0"
       inkscape:rounded="0"
       inkscape:flatsided="false"
       sodipodi:arg2="1.5719933"
       sodipodi:arg1="0.52479577"
       sodipodi:r2="49.789665"
       sodipodi:r1="99.57933"
       sodipodi:cy="-361.34525"
       sodipodi:cx="-613.83331"
       sodipodi:sides="3"
       id="path880"
       style="fill:#00adb5;stroke:#eeeeed;stroke-width:13.3402;stroke-linecap:round;stroke-linejoin:round;stroke-miterlimit:4;stroke-dasharray:none;stroke-opacity:1;fill-opacity:1"
       sodipodi:type="star"
       inkscape:export-filename="C:\Users\Duong\Documents\Development\Projects\1VA\Assets\Sprites\Player\DirectionArrow.png" />
    <g
       id="g930">
      <circle
         cy="170.89583"
         cx="50"
         id="circle838"
         style="fill:#222831;fill-opacity:1;stroke:#363c45;stroke-width:5;stroke-linecap:round;stroke-linejoin:round;stroke-miterlimit:4;stroke-dasharray:none;stroke-opacity:1"
         r="47.500004" />
      <g
         id="g921">
        <g
           id="g914">
          <path
             d="m 97.500011,-100.00001 a 47.500008,47.500004 0 0 1 -47.500007,47.500006 47.500008,47.500004 0 0 1 -47.5000078,-47.500006 47.500008,47.500004 0 0 1 47.5000078,-47.5 47.500008,47.500004 0 0 1 47.500007,47.5 z"
             transform="translate(0,270.89584)"
             sodipodi:ry="47.500004"
             sodipodi:rx="47.500008"
             sodipodi:cy="-100.00001"
             sodipodi:cx="50.000004"
             sodipodi:type="arc"
             inkscape:path-effect="#path-effect986"
             clip-path="url(#clipPath978)"
             id="path958"
             style="fill:#ffaaaa;stroke:#363c45;stroke-width:4.99999;stroke-linecap:round;stroke-linejoin:round;stroke-opacity:1" />
          <rect
             ry="2"
             y="154.14583"
             x="7.75"
             height="3"
             width="16.338387"
             id="rect1024"
             style="fill:#ffaaaa;fill-opacity:1;stroke:none;stroke-width:4.99998;stroke-linecap:round;stroke-linejoin:round;stroke-opacity:1" />
          <rect
             style="fill:#ffaaaa;fill-opacity:1;stroke:none;stroke-width:4.99998;stroke-linecap:round;stroke-linejoin:round;stroke-opacity:1"
             id="rect1026"
             width="16.338387"
             height="3"
             x="75.900002"
             y="154.14583"
             ry="2" />
        </g>
        <rect
           style="fill:#222831;fill-opacity:1;stroke:none;stroke-width:4.99999;stroke-linecap:round;stroke-linejoin:round;stroke-opacity:1"
           id="rect990"
           width="52"
           height="52"
           x="24"
           y="139.89583"
           ry="17.5" />
      </g>
    </g>
  </g>
</svg>
